<mxfile host="app.diagrams.net" agent="Mozilla/5.0 (Windows NT 10.0; Win64; x64) AppleWebKit/537.36 (KHTML, like Gecko) Chrome/128.0.0.0 Safari/537.36" version="24.7.14">
  <diagram name="Página-1" id="XnQtG-GyFu3zvyJKXA-6">
    <mxGraphModel dx="2261" dy="746" grid="1" gridSize="10" guides="1" tooltips="1" connect="1" arrows="1" fold="1" page="1" pageScale="1" pageWidth="827" pageHeight="1169" background="none" math="0" shadow="0">
      <root>
        <mxCell id="0" />
        <mxCell id="1" parent="0" />
        <mxCell id="KCyuTO8wxvNjZEvzu9Th-2" value="&lt;font style=&quot;font-size: 14px;&quot;&gt;ReprodutorMusical&lt;/font&gt;" style="swimlane;fontStyle=1;align=center;verticalAlign=top;childLayout=stackLayout;horizontal=1;startSize=26;horizontalStack=0;resizeParent=1;resizeParentMax=0;resizeLast=0;collapsible=1;marginBottom=0;whiteSpace=wrap;html=1;" vertex="1" parent="1">
          <mxGeometry x="-180" y="400" width="210" height="130" as="geometry" />
        </mxCell>
        <mxCell id="KCyuTO8wxvNjZEvzu9Th-3" value="&lt;font style=&quot;font-size: 14px;&quot;&gt;- Musicas [] musicas&lt;/font&gt;" style="text;strokeColor=none;fillColor=none;align=left;verticalAlign=top;spacingLeft=4;spacingRight=4;overflow=hidden;rotatable=0;points=[[0,0.5],[1,0.5]];portConstraint=eastwest;whiteSpace=wrap;html=1;" vertex="1" parent="KCyuTO8wxvNjZEvzu9Th-2">
          <mxGeometry y="26" width="210" height="26" as="geometry" />
        </mxCell>
        <mxCell id="KCyuTO8wxvNjZEvzu9Th-4" value="" style="line;strokeWidth=1;fillColor=none;align=left;verticalAlign=middle;spacingTop=-1;spacingLeft=3;spacingRight=3;rotatable=0;labelPosition=right;points=[];portConstraint=eastwest;strokeColor=inherit;" vertex="1" parent="KCyuTO8wxvNjZEvzu9Th-2">
          <mxGeometry y="52" width="210" height="8" as="geometry" />
        </mxCell>
        <mxCell id="KCyuTO8wxvNjZEvzu9Th-5" value="&lt;font style=&quot;font-size: 14px;&quot;&gt;+ &lt;span class=&quot;hljs-built_in&quot;&gt;selecionarMusica&lt;/span&gt;(String)&lt;/font&gt;&lt;div&gt;&lt;font size=&quot;3&quot;&gt;+ &lt;span class=&quot;hljs-built_in&quot;&gt;tocar&lt;/span&gt;()&lt;br&gt;&lt;/font&gt;&lt;/div&gt;&lt;div&gt;&lt;font size=&quot;3&quot;&gt;+ &lt;span class=&quot;hljs-built_in&quot;&gt;pausar&lt;/span&gt;()&lt;/font&gt;&lt;br&gt;&lt;/div&gt;" style="text;strokeColor=none;fillColor=none;align=left;verticalAlign=top;spacingLeft=4;spacingRight=4;overflow=hidden;rotatable=0;points=[[0,0.5],[1,0.5]];portConstraint=eastwest;whiteSpace=wrap;html=1;" vertex="1" parent="KCyuTO8wxvNjZEvzu9Th-2">
          <mxGeometry y="60" width="210" height="70" as="geometry" />
        </mxCell>
        <mxCell id="KCyuTO8wxvNjZEvzu9Th-12" value="Música" style="swimlane;fontStyle=0;childLayout=stackLayout;horizontal=1;startSize=26;fillColor=none;horizontalStack=0;resizeParent=1;resizeParentMax=0;resizeLast=0;collapsible=1;marginBottom=0;whiteSpace=wrap;html=1;" vertex="1" parent="1">
          <mxGeometry x="-310" y="660" width="140" height="78" as="geometry" />
        </mxCell>
        <mxCell id="KCyuTO8wxvNjZEvzu9Th-13" value="+ nome: String" style="text;strokeColor=none;fillColor=none;align=left;verticalAlign=top;spacingLeft=4;spacingRight=4;overflow=hidden;rotatable=0;points=[[0,0.5],[1,0.5]];portConstraint=eastwest;whiteSpace=wrap;html=1;" vertex="1" parent="KCyuTO8wxvNjZEvzu9Th-12">
          <mxGeometry y="26" width="140" height="26" as="geometry" />
        </mxCell>
        <mxCell id="KCyuTO8wxvNjZEvzu9Th-14" value="+ caminho: String" style="text;strokeColor=none;fillColor=none;align=left;verticalAlign=top;spacingLeft=4;spacingRight=4;overflow=hidden;rotatable=0;points=[[0,0.5],[1,0.5]];portConstraint=eastwest;whiteSpace=wrap;html=1;" vertex="1" parent="KCyuTO8wxvNjZEvzu9Th-12">
          <mxGeometry y="52" width="140" height="26" as="geometry" />
        </mxCell>
        <mxCell id="KCyuTO8wxvNjZEvzu9Th-16" value="IPhone" style="swimlane;fontStyle=1;align=center;verticalAlign=top;childLayout=stackLayout;horizontal=1;startSize=26;horizontalStack=0;resizeParent=1;resizeParentMax=0;resizeLast=0;collapsible=1;marginBottom=0;whiteSpace=wrap;html=1;" vertex="1" parent="1">
          <mxGeometry x="120" y="286" width="160" height="34" as="geometry" />
        </mxCell>
        <mxCell id="KCyuTO8wxvNjZEvzu9Th-18" value="" style="line;strokeWidth=1;fillColor=none;align=left;verticalAlign=middle;spacingTop=-1;spacingLeft=3;spacingRight=3;rotatable=0;labelPosition=right;points=[];portConstraint=eastwest;strokeColor=inherit;" vertex="1" parent="KCyuTO8wxvNjZEvzu9Th-16">
          <mxGeometry y="26" width="160" height="8" as="geometry" />
        </mxCell>
        <mxCell id="KCyuTO8wxvNjZEvzu9Th-22" value="" style="endArrow=diamondThin;endFill=0;endSize=24;html=1;rounded=0;exitX=0.519;exitY=0.986;exitDx=0;exitDy=0;exitPerimeter=0;" edge="1" parent="1" source="KCyuTO8wxvNjZEvzu9Th-5">
          <mxGeometry width="160" relative="1" as="geometry">
            <mxPoint x="-60" y="590" as="sourcePoint" />
            <mxPoint x="-170" y="660" as="targetPoint" />
          </mxGeometry>
        </mxCell>
        <mxCell id="KCyuTO8wxvNjZEvzu9Th-23" value="" style="endArrow=open;endFill=1;endSize=12;html=1;rounded=0;exitX=0;exitY=1;exitDx=0;exitDy=0;entryX=1.01;entryY=0.115;entryDx=0;entryDy=0;entryPerimeter=0;" edge="1" parent="1" source="KCyuTO8wxvNjZEvzu9Th-16" target="KCyuTO8wxvNjZEvzu9Th-2">
          <mxGeometry width="160" relative="1" as="geometry">
            <mxPoint x="170" y="394.5" as="sourcePoint" />
            <mxPoint x="330" y="394.5" as="targetPoint" />
          </mxGeometry>
        </mxCell>
        <mxCell id="KCyuTO8wxvNjZEvzu9Th-28" value="&lt;font style=&quot;font-size: 14px;&quot;&gt;AparelhoTelefonico&lt;/font&gt;" style="swimlane;fontStyle=1;align=center;verticalAlign=top;childLayout=stackLayout;horizontal=1;startSize=26;horizontalStack=0;resizeParent=1;resizeParentMax=0;resizeLast=0;collapsible=1;marginBottom=0;whiteSpace=wrap;html=1;" vertex="1" parent="1">
          <mxGeometry x="95" y="420" width="210" height="130" as="geometry" />
        </mxCell>
        <mxCell id="KCyuTO8wxvNjZEvzu9Th-29" value="&lt;font style=&quot;font-size: 14px;&quot;&gt;&amp;nbsp;+ Contatos [ ]&lt;/font&gt;" style="text;strokeColor=none;fillColor=none;align=left;verticalAlign=top;spacingLeft=4;spacingRight=4;overflow=hidden;rotatable=0;points=[[0,0.5],[1,0.5]];portConstraint=eastwest;whiteSpace=wrap;html=1;" vertex="1" parent="KCyuTO8wxvNjZEvzu9Th-28">
          <mxGeometry y="26" width="210" height="26" as="geometry" />
        </mxCell>
        <mxCell id="KCyuTO8wxvNjZEvzu9Th-30" value="" style="line;strokeWidth=1;fillColor=none;align=left;verticalAlign=middle;spacingTop=-1;spacingLeft=3;spacingRight=3;rotatable=0;labelPosition=right;points=[];portConstraint=eastwest;strokeColor=inherit;" vertex="1" parent="KCyuTO8wxvNjZEvzu9Th-28">
          <mxGeometry y="52" width="210" height="8" as="geometry" />
        </mxCell>
        <mxCell id="KCyuTO8wxvNjZEvzu9Th-31" value="&lt;font style=&quot;font-size: 14px;&quot;&gt;+ &lt;span class=&quot;hljs-built_in&quot;&gt;atender&lt;/span&gt;()&lt;/font&gt;&lt;div&gt;&lt;font size=&quot;3&quot;&gt;+ &lt;span class=&quot;hljs-built_in&quot;&gt;iniciarCorreioVoz&lt;/span&gt;()&lt;/font&gt;&lt;br&gt;&lt;/div&gt;&lt;div&gt;&lt;span style=&quot;font-size: 14px;&quot;&gt;&amp;nbsp;+&amp;nbsp;&lt;/span&gt;&lt;span style=&quot;font-size: 14px;&quot; class=&quot;hljs-built_in&quot;&gt;ligar&lt;/span&gt;&lt;span style=&quot;font-size: 14px;&quot;&gt;(String numero)&lt;/span&gt;&lt;font size=&quot;3&quot;&gt;&lt;br&gt;&lt;/font&gt;&lt;/div&gt;" style="text;strokeColor=none;fillColor=none;align=left;verticalAlign=top;spacingLeft=4;spacingRight=4;overflow=hidden;rotatable=0;points=[[0,0.5],[1,0.5]];portConstraint=eastwest;whiteSpace=wrap;html=1;" vertex="1" parent="KCyuTO8wxvNjZEvzu9Th-28">
          <mxGeometry y="60" width="210" height="70" as="geometry" />
        </mxCell>
        <mxCell id="KCyuTO8wxvNjZEvzu9Th-32" value="Cntato" style="swimlane;fontStyle=0;childLayout=stackLayout;horizontal=1;startSize=26;fillColor=none;horizontalStack=0;resizeParent=1;resizeParentMax=0;resizeLast=0;collapsible=1;marginBottom=0;whiteSpace=wrap;html=1;" vertex="1" parent="1">
          <mxGeometry x="130" y="670" width="140" height="78" as="geometry" />
        </mxCell>
        <mxCell id="KCyuTO8wxvNjZEvzu9Th-33" value="+ nome: String" style="text;strokeColor=none;fillColor=none;align=left;verticalAlign=top;spacingLeft=4;spacingRight=4;overflow=hidden;rotatable=0;points=[[0,0.5],[1,0.5]];portConstraint=eastwest;whiteSpace=wrap;html=1;" vertex="1" parent="KCyuTO8wxvNjZEvzu9Th-32">
          <mxGeometry y="26" width="140" height="26" as="geometry" />
        </mxCell>
        <mxCell id="KCyuTO8wxvNjZEvzu9Th-34" value="+ numero: String" style="text;strokeColor=none;fillColor=none;align=left;verticalAlign=top;spacingLeft=4;spacingRight=4;overflow=hidden;rotatable=0;points=[[0,0.5],[1,0.5]];portConstraint=eastwest;whiteSpace=wrap;html=1;" vertex="1" parent="KCyuTO8wxvNjZEvzu9Th-32">
          <mxGeometry y="52" width="140" height="26" as="geometry" />
        </mxCell>
        <mxCell id="KCyuTO8wxvNjZEvzu9Th-37" value="" style="endArrow=diamondThin;endFill=0;endSize=24;html=1;rounded=0;exitX=0.014;exitY=1.014;exitDx=0;exitDy=0;exitPerimeter=0;entryX=0.957;entryY=0.026;entryDx=0;entryDy=0;entryPerimeter=0;" edge="1" parent="1" source="KCyuTO8wxvNjZEvzu9Th-31" target="KCyuTO8wxvNjZEvzu9Th-32">
          <mxGeometry width="160" relative="1" as="geometry">
            <mxPoint x="429" y="493" as="sourcePoint" />
            <mxPoint x="280" y="634" as="targetPoint" />
          </mxGeometry>
        </mxCell>
        <mxCell id="KCyuTO8wxvNjZEvzu9Th-38" value="" style="endArrow=open;endFill=1;endSize=12;html=1;rounded=0;exitX=0.25;exitY=1;exitDx=0;exitDy=0;entryX=0.5;entryY=0;entryDx=0;entryDy=0;" edge="1" parent="1" source="KCyuTO8wxvNjZEvzu9Th-16" target="KCyuTO8wxvNjZEvzu9Th-28">
          <mxGeometry width="160" relative="1" as="geometry">
            <mxPoint x="200" y="330" as="sourcePoint" />
            <mxPoint x="92" y="415" as="targetPoint" />
          </mxGeometry>
        </mxCell>
      </root>
    </mxGraphModel>
  </diagram>
</mxfile>
